<svg width="24" height="24" viewBox="0 0 24 24" fill="none" xmlns="http://www.w3.org/2000/svg">
<g clip-path="url(#clip0_2392_5650)">
<path d="M20.4853 3.51469C18.2188 1.24823 15.2053 0 12 0C8.79469 0 5.78123 1.24823 3.51469 3.51469C1.24823 5.78123 0 8.79469 0 12C0 15.2053 1.24823 18.2188 3.51469 20.4853C5.78123 22.7518 8.79469 24 12 24C15.2053 24 18.2188 22.7518 20.4853 20.4853C22.7518 18.2188 24 15.2053 24 12C24 8.79469 22.7518 5.78123 20.4853 3.51469ZM12 22.5938C6.15858 22.5938 1.40625 17.8414 1.40625 12C1.40625 6.15858 6.15858 1.40625 12 1.40625C17.8414 1.40625 22.5938 6.15858 22.5938 12C22.5938 17.8414 17.8414 22.5938 12 22.5938Z" fill="white"/>
<path d="M19.0605 11.2969H4.93945C4.55114 11.2969 4.23633 11.6117 4.23633 12C4.23633 16.2809 7.71909 19.7637 12 19.7637C16.2809 19.7637 19.7637 16.2809 19.7637 12C19.7637 11.6117 19.4489 11.2969 19.0605 11.2969ZM12 18.3574C9.79856 18.3574 7.85498 17.2324 6.71353 15.5273H17.2865C16.145 17.2324 14.2014 18.3574 12 18.3574ZM17.9934 14.1211H6.00661C5.8463 13.6695 5.73553 13.1947 5.6812 12.7031H18.3188C18.2645 13.1947 18.1537 13.6695 17.9934 14.1211Z" fill="white"/>
<path d="M7.76367 9.17285C8.15198 9.17285 8.4668 8.85804 8.4668 8.46973C8.4668 8.07879 8.78484 7.76074 9.17578 7.76074C9.56672 7.76074 9.88477 8.07879 9.88477 8.46973C9.88477 8.85804 10.1996 9.17285 10.5879 9.17285C10.9762 9.17285 11.291 8.85804 11.291 8.46973C11.291 7.30338 10.3421 6.35449 9.17578 6.35449C8.00944 6.35449 7.06055 7.30338 7.06055 8.46973C7.06055 8.85804 7.37536 9.17285 7.76367 9.17285Z" fill="white"/>
<path d="M13.4121 9.17285C13.8004 9.17285 14.1152 8.85804 14.1152 8.46973C14.1152 8.07879 14.4333 7.76074 14.8242 7.76074C15.2152 7.76074 15.5332 8.07879 15.5332 8.46973C15.5332 8.85804 15.848 9.17285 16.2363 9.17285C16.6246 9.17285 16.9395 8.85804 16.9395 8.46973C16.9395 7.30338 15.9906 6.35449 14.8242 6.35449C13.6579 6.35449 12.709 7.30338 12.709 8.46973C12.709 8.85804 13.0238 9.17285 13.4121 9.17285Z" fill="white"/>
</g>
<defs>
<clipPath id="clip0_2392_5650">
<rect width="24" height="24" fill="white"/>
</clipPath>
</defs>
</svg>
