<svg width="40" height="40" viewBox="0 0 40 40" fill="none" xmlns="http://www.w3.org/2000/svg">
<g clip-path="url(#clip0_2392_6063)">
<path d="M31.4048 9.35641H29.4782C30.2097 8.38086 30.6436 7.17 30.6436 5.85961V5.84055C30.6436 2.62008 28.0235 0 24.8031 0H24.784C22.8424 0 21.1202 0.953125 20.0577 2.41523C18.9952 0.953125 17.2729 0 15.3313 0H15.3123C12.0918 0 9.47172 2.62008 9.47172 5.84055V5.85961C9.47172 7.17 9.90563 8.38086 10.6371 9.35641H8.59516C6.41383 9.35641 4.63922 11.1311 4.63922 13.3124V36.0441C4.63922 38.2255 6.41383 40.0001 8.59516 40.0001H31.4048C33.5861 40.0001 35.3607 38.2255 35.3607 36.0441V13.3123C35.3607 11.1311 33.5861 9.35641 31.4048 9.35641ZM21.61 11.7002V20.7245H18.3899V11.7002H21.61ZM32.9781 23.0681V26.2882H7.02196V23.0681H32.9781ZM33.017 13.3123V20.7244H23.9538V11.7002H31.4048C32.2938 11.7002 33.017 12.4234 33.017 13.3123ZM21.2873 5.84055C21.2873 3.91242 22.8559 2.34375 24.7841 2.34375H24.8031C26.7313 2.34375 28.2999 3.91242 28.2999 5.84055V5.85961C28.2999 7.78773 26.7313 9.35641 24.8031 9.35641H21.2873V5.84055ZM11.8155 5.85961V5.84055C11.8155 3.91242 13.3841 2.34375 15.3123 2.34375H15.3313C17.2595 2.34375 18.8281 3.91242 18.8281 5.84055V9.35641H15.3123C13.3841 9.35641 11.8155 7.78773 11.8155 5.85961ZM8.59524 11.7002H16.0463V20.7245H6.98305V13.3124C6.98305 12.4234 7.70625 11.7002 8.59524 11.7002ZM6.98305 36.0441V28.632H16.0463V37.6562H8.59524C7.70625 37.6562 6.98305 36.933 6.98305 36.0441ZM18.39 37.6562V28.632H21.6101V37.6562H18.39ZM31.4048 37.6562H23.9538V28.632H33.017V36.0441C33.017 36.933 32.2938 37.6562 31.4048 37.6562Z" fill="#002A2E"/>
</g>
<defs>
<clipPath id="clip0_2392_6063">
<rect width="40" height="40" fill="white"/>
</clipPath>
</defs>
</svg>
