<svg width="24" height="24" viewBox="0 0 24 24" fill="none" xmlns="http://www.w3.org/2000/svg">
<path d="M17.5229 15.3867C17.3251 15.3867 17.1318 15.3237 16.9673 15.2055C16.8029 15.0874 16.6747 14.9195 16.599 14.7231C16.5233 14.5267 16.5035 14.3105 16.5421 14.102C16.5807 13.8934 16.676 13.7019 16.8158 13.5516C16.9557 13.4012 17.1338 13.2988 17.3278 13.2574C17.5218 13.2159 17.7229 13.2372 17.9056 13.3185C18.0883 13.3999 18.2445 13.5377 18.3544 13.7145C18.4643 13.8912 18.5229 14.0991 18.5229 14.3117C18.5229 14.5968 18.4176 14.8702 18.23 15.0718C18.0425 15.2734 17.7881 15.3867 17.5229 15.3867ZM6.47708 15.3867C6.2793 15.3867 6.08596 15.3237 5.92151 15.2055C5.75706 15.0874 5.62889 14.9195 5.5532 14.7231C5.47752 14.5267 5.45771 14.3105 5.4963 14.102C5.53488 13.8934 5.63012 13.7019 5.76998 13.5516C5.90983 13.4012 6.08801 13.2988 6.28199 13.2574C6.47597 13.2159 6.67704 13.2372 6.85977 13.3185C7.04249 13.3999 7.19867 13.5377 7.30855 13.7145C7.41843 13.8912 7.47708 14.0991 7.47708 14.3117C7.47708 14.5968 7.37173 14.8702 7.18419 15.0718C6.99665 15.2734 6.7423 15.3867 6.47708 15.3867ZM17.8813 8.9152L19.8787 5.19749C19.9105 5.14658 19.9322 5.08919 19.9426 5.02889C19.9529 4.96858 19.9516 4.90664 19.9387 4.84691C19.9258 4.78717 19.9017 4.73091 19.8678 4.68161C19.8339 4.63231 19.7909 4.59102 19.7415 4.56029C19.6922 4.52957 19.6375 4.51007 19.5808 4.50299C19.5242 4.49592 19.4668 4.50142 19.4122 4.51917C19.3576 4.53691 19.307 4.56652 19.2634 4.60615C19.2199 4.64578 19.1844 4.6946 19.1592 4.74958L17.1367 8.51521C15.5211 7.7363 13.7706 7.33361 12 7.33361C10.2294 7.33361 8.47887 7.7363 6.86333 8.51521L4.84083 4.74958C4.81558 4.6946 4.78009 4.64578 4.73657 4.60615C4.69305 4.56652 4.64242 4.53691 4.58783 4.51917C4.53323 4.50142 4.47583 4.49592 4.41917 4.50299C4.36251 4.51007 4.30781 4.52957 4.25845 4.56029C4.20909 4.59102 4.16613 4.63231 4.13222 4.68161C4.09831 4.73091 4.07417 4.78717 4.06131 4.84691C4.04845 4.90664 4.04713 4.96858 4.05744 5.02889C4.06775 5.08919 4.08947 5.14658 4.12125 5.19749L6.11875 8.9152C2.68875 10.9205 0.343333 14.653 0 19.0628H24C23.6567 14.653 21.3108 10.9205 17.8813 8.9152Z" fill="white"/>
</svg>
