<svg width="24" height="24" viewBox="0 0 24 24" fill="none" xmlns="http://www.w3.org/2000/svg">
<path d="M18.3579 12.6827C18.3479 10.7162 19.1817 9.23204 20.8695 8.13898C19.9252 6.69765 18.4986 5.90465 16.6149 5.74926C14.8316 5.59923 12.8826 6.85839 12.1693 6.85839C11.4158 6.85839 9.68782 5.80284 8.33155 5.80284C5.52858 5.85106 2.5498 8.1872 2.5498 12.9399C2.5498 14.3437 2.79092 15.7939 3.27315 17.2906C3.91612 19.2571 6.23686 24.0794 8.65806 23.999C9.92391 23.9669 10.818 23.0399 12.4657 23.0399C14.0631 23.0399 14.8919 23.999 16.3034 23.999C18.7447 23.9615 20.8444 19.5786 21.4573 17.6068C18.1821 15.9618 18.3579 12.7845 18.3579 12.6827ZM15.5148 3.88464C16.8861 2.14861 16.7605 0.56796 16.7204 0C15.5098 0.0750136 14.1083 0.878731 13.3096 1.86998C12.4305 2.93089 11.9131 4.24363 12.0236 5.72247C13.3347 5.82963 14.5302 5.11164 15.5148 3.88464Z" fill="white"/>
</svg>
