<svg width="20" height="20" viewBox="0 0 20 20" fill="none" xmlns="http://www.w3.org/2000/svg">
<path d="M17.0711 2.92891C15.1823 1.0402 12.6711 0 10 0C7.32891 0 4.8177 1.0402 2.92891 2.92891C1.0402 4.8177 0 7.32891 0 10C0 12.6711 1.0402 15.1823 2.92891 17.0711C4.8177 18.9598 7.32891 20 10 20C12.6711 20 15.1823 18.9598 17.0711 17.0711C18.9598 15.1823 20 12.6711 20 10C20 7.32891 18.9598 4.8177 17.0711 2.92891ZM18.8082 9.41406H17.6243C17.4972 7.74547 16.832 6.22508 15.8027 5.02598L16.6399 4.18879C17.8809 5.60504 18.6769 7.42012 18.8082 9.41406ZM15.2604 9.41406C15.2005 8.87332 15.0589 8.35695 14.8482 7.87746L15.8764 7.28379C16.1818 7.94191 16.3798 8.65949 16.4478 9.41406H15.2604ZM14.0793 9.41406H12.8807C12.6468 8.26242 11.7376 7.35324 10.5859 7.11934V5.92074C12.3903 6.17875 13.8213 7.60969 14.0793 9.41406ZM10 11.7676C9.02535 11.7676 8.23242 10.9746 8.23242 10C8.23242 9.02535 9.02535 8.23242 10 8.23242C10.9746 8.23242 11.7676 9.02535 11.7676 10C11.7676 10.9746 10.9746 11.7676 10 11.7676ZM10.5859 4.73961V3.55219C11.3405 3.6202 12.0581 3.81812 12.7162 4.12352L12.1225 5.15176C11.643 4.94105 11.1267 4.79945 10.5859 4.73961ZM9.41406 4.73961C8.87332 4.79945 8.35695 4.94105 7.87746 5.15176L7.28379 4.12352C7.94191 3.81812 8.65949 3.6202 9.41406 3.55219V4.73961ZM9.41406 5.92074V7.11934C8.26242 7.35324 7.35324 8.26242 7.11934 9.41406H5.92074C6.17871 7.60969 7.60969 6.17875 9.41406 5.92074ZM5.92074 10.5859H7.11934C7.35324 11.7376 8.26242 12.6468 9.41406 12.8807V14.0793C7.60969 13.8212 6.17871 12.3903 5.92074 10.5859ZM9.41406 15.2604V16.4478C8.65949 16.3798 7.94191 16.1819 7.28379 15.8765L7.87746 14.8482C8.35695 15.0589 8.87332 15.2005 9.41406 15.2604ZM10.5859 15.2604C11.1267 15.2005 11.643 15.0589 12.1225 14.8482L12.7162 15.8765C12.0581 16.1819 11.3405 16.3798 10.5859 16.4478V15.2604ZM10.5859 14.0793V12.8807C11.7376 12.6468 12.6468 11.7376 12.8807 10.5859H14.0793C13.8213 12.3903 12.3903 13.8212 10.5859 14.0793ZM14.2607 6.86348C13.9444 6.43488 13.5651 6.05559 13.1365 5.73926L13.7302 4.7109C14.3341 5.13805 14.862 5.6659 15.2891 6.26977L14.2607 6.86348ZM14.974 4.19734C13.7749 3.16797 12.2545 2.50281 10.5859 2.37574V1.1918C12.5799 1.32313 14.395 2.1191 15.8112 3.36016L14.974 4.19734ZM9.41406 2.37574C7.74547 2.50277 6.22508 3.16797 5.02598 4.1973L4.18879 3.36016C5.605 2.1191 7.42012 1.32313 9.41406 1.1918V2.37574ZM6.26977 4.71086L6.86348 5.73922C6.43488 6.05555 6.05559 6.43488 5.73926 6.86344L4.7109 6.26973C5.13805 5.66586 5.66586 5.13805 6.26977 4.71086ZM4.12352 7.28379L5.15176 7.87746C4.94102 8.35695 4.79941 8.87332 4.73961 9.41406H3.55219C3.6202 8.65949 3.81812 7.94191 4.12352 7.28379ZM4.73965 10.5859C4.79949 11.1267 4.94109 11.643 5.1518 12.1225L4.12355 12.7162C3.81813 12.0581 3.6202 11.3405 3.55219 10.5859H4.73965ZM5.73926 13.1365C6.05559 13.5651 6.43492 13.9444 6.86348 14.2607L6.26977 15.2891C5.66586 14.862 5.13805 14.3341 4.7109 13.7302L5.73926 13.1365ZM5.02598 15.8027C6.22512 16.832 7.74547 17.4972 9.41406 17.6242V18.8082C7.42012 18.6768 5.605 17.8809 4.18879 16.6398L5.02598 15.8027ZM10.5859 17.6243C12.2545 17.4972 13.7749 16.832 14.974 15.8027L15.8112 16.6399C14.395 17.8809 12.5798 18.6769 10.5859 18.8082V17.6243ZM13.7302 15.2891L13.1365 14.2608C13.5651 13.9445 13.9444 13.5651 14.2607 13.1366L15.2891 13.7303C14.862 14.3341 14.3341 14.862 13.7302 15.2891ZM15.8765 12.7162L14.8482 12.1225C15.059 11.643 15.2006 11.1267 15.2604 10.5859H16.4478C16.3798 11.3405 16.1819 12.0581 15.8765 12.7162ZM3.36016 4.18879L4.19734 5.02598C3.16797 6.22508 2.50277 7.74547 2.37574 9.41406H1.1918C1.32313 7.42012 2.1191 5.60504 3.36016 4.18879ZM1.1918 10.5859H2.37574C2.50277 12.2545 3.16797 13.7749 4.1973 14.974L3.36016 15.8112C2.1191 14.395 1.32313 12.5799 1.1918 10.5859ZM16.6398 15.8112L15.8027 14.974C16.832 13.7749 17.4972 12.2545 17.6242 10.5859H18.8082C18.6769 12.5799 17.8809 14.395 16.6398 15.8112Z" fill="#BACED0"/>
<path d="M10 9.41406C9.69351 9.41406 9.39988 9.68355 9.41406 10C9.42828 10.3175 9.67152 10.5859 10 10.5859C10.3065 10.5859 10.6001 10.3164 10.5859 10C10.5717 9.68254 10.3285 9.41406 10 9.41406Z" fill="#BACED0"/>
</svg>
