<svg width="20" height="20" viewBox="0 0 20 20" fill="none" xmlns="http://www.w3.org/2000/svg">
<g clip-path="url(#clip0_2392_6286)">
<path d="M19.4907 5.53167L14.4681 0.509044C13.789 -0.170007 12.684 -0.170007 12.005 0.509044L6.9824 5.53167C6.30331 6.21076 6.30331 7.31569 6.9824 7.99478L8.40101 9.41339H1.74167C0.781321 9.41339 0 10.1947 0 11.1551V18.2581C0 19.2184 0.781321 19.9998 1.74167 19.9998H8.8447C9.80505 19.9998 10.5864 19.2184 10.5864 18.2581V11.5988L12.005 13.0174C12.3445 13.3569 12.7905 13.5267 13.2365 13.5267C13.6825 13.5267 14.1285 13.3569 14.4681 13.0174L19.4906 7.99478C20.1698 7.31569 20.1698 6.21076 19.4907 5.53167ZM9.41445 18.2581C9.41445 18.5722 9.15885 18.8278 8.8447 18.8278H1.74167C1.42752 18.8278 1.17192 18.5722 1.17192 18.2581V11.1551C1.17192 10.8409 1.42752 10.5853 1.74167 10.5853H8.8447C9.15885 10.5853 9.41445 10.8409 9.41445 11.1551V18.2581ZM18.6621 7.16611L13.6394 12.1887C13.5318 12.2963 13.3887 12.3556 13.2366 12.3556C13.0844 12.3556 12.9413 12.2963 12.8337 12.1887L7.81106 7.16611C7.70344 7.05849 7.64422 6.91544 7.64422 6.76325C7.64422 6.61105 7.70348 6.46796 7.81106 6.36038L12.8337 1.33775C12.9448 1.22665 13.0906 1.17114 13.2365 1.17114C13.3824 1.17114 13.5284 1.22669 13.6394 1.33775L18.662 6.36034C18.7696 6.46796 18.8288 6.61101 18.8288 6.76321C18.8288 6.9154 18.7696 7.05849 18.6621 7.16611Z" fill="#BACED0"/>
<path d="M2.93957 11.7672C2.63308 11.7672 2.33943 12.0367 2.35361 12.3532C2.36783 12.6707 2.61108 12.9392 2.93957 12.9392C3.24607 12.9392 3.53972 12.6697 3.52554 12.3532C3.51132 12.0357 3.26806 11.7672 2.93957 11.7672Z" fill="#BACED0"/>
<path d="M5.29319 11.7672C4.98669 11.7672 4.69305 12.0367 4.70723 12.3532C4.72145 12.6707 4.9647 12.9392 5.29319 12.9392C5.59969 12.9392 5.89333 12.6697 5.87915 12.3532C5.86493 12.0357 5.62168 11.7672 5.29319 11.7672Z" fill="#BACED0"/>
<path d="M7.6468 11.7672C7.3403 11.7672 7.04665 12.0367 7.06083 12.3532C7.07505 12.6707 7.31831 12.9392 7.6468 12.9392C7.95329 12.9392 8.24694 12.6697 8.23276 12.3532C8.21854 12.0357 7.97529 11.7672 7.6468 11.7672Z" fill="#BACED0"/>
<path d="M2.93957 14.1208C2.63308 14.1208 2.33943 14.3904 2.35361 14.7068C2.36783 15.0243 2.61108 15.2928 2.93957 15.2928C3.24607 15.2928 3.53972 15.0233 3.52554 14.7068C3.51132 14.3893 3.26806 14.1208 2.93957 14.1208Z" fill="#BACED0"/>
<path d="M5.29319 14.1208C4.98669 14.1208 4.69305 14.3904 4.70723 14.7068C4.72145 15.0243 4.9647 15.2928 5.29319 15.2928C5.59969 15.2928 5.89333 15.0233 5.87915 14.7068C5.86493 14.3893 5.62168 14.1208 5.29319 14.1208Z" fill="#BACED0"/>
<path d="M7.6468 14.1208C7.3403 14.1208 7.04665 14.3904 7.06083 14.7068C7.07505 15.0243 7.31831 15.2928 7.6468 15.2928C7.95329 15.2928 8.24694 15.0233 8.23276 14.7068C8.21854 14.3893 7.97529 14.1208 7.6468 14.1208Z" fill="#BACED0"/>
<path d="M2.93957 16.4745C2.63308 16.4745 2.33943 16.744 2.35361 17.0604C2.36783 17.3779 2.61108 17.6464 2.93957 17.6464C3.24607 17.6464 3.53972 17.3769 3.52554 17.0604C3.51132 16.7429 3.26806 16.4745 2.93957 16.4745Z" fill="#BACED0"/>
<path d="M5.29319 16.4745C4.98669 16.4745 4.69305 16.744 4.70723 17.0604C4.72145 17.3779 4.9647 17.6464 5.29319 17.6464C5.59969 17.6464 5.89333 17.3769 5.87915 17.0604C5.86493 16.7429 5.62168 16.4745 5.29319 16.4745Z" fill="#BACED0"/>
<path d="M7.6468 16.4745C7.3403 16.4745 7.04665 16.744 7.06083 17.0604C7.07505 17.3779 7.31831 17.6464 7.6468 17.6464C7.95329 17.6464 8.24694 17.3769 8.23276 17.0604C8.21854 16.7429 7.97529 16.4745 7.6468 16.4745Z" fill="#BACED0"/>
<path d="M13.2366 2.849C12.9301 2.849 12.6364 3.1185 12.6506 3.43496C12.6648 3.75243 12.9081 4.02092 13.2366 4.02092C13.5431 4.02092 13.8367 3.75142 13.8225 3.43496C13.8083 3.11749 13.565 2.849 13.2366 2.849Z" fill="#BACED0"/>
<path d="M13.2366 6.17749C12.9301 6.17749 12.6364 6.44699 12.6506 6.76345C12.6648 7.08093 12.9081 7.34941 13.2366 7.34941C13.5431 7.34941 13.8367 7.07991 13.8225 6.76345C13.8083 6.44598 13.565 6.17749 13.2366 6.17749Z" fill="#BACED0"/>
<path d="M13.2366 9.50601C12.9301 9.50601 12.6364 9.77552 12.6506 10.092C12.6648 10.4094 12.9081 10.6779 13.2366 10.6779C13.5431 10.6779 13.8367 10.4084 13.8225 10.092C13.8083 9.7745 13.565 9.50601 13.2366 9.50601Z" fill="#BACED0"/>
</g>
<defs>
<clipPath id="clip0_2392_6286">
<rect width="20" height="20" fill="white"/>
</clipPath>
</defs>
</svg>
