<svg width="20" height="20" viewBox="0 0 20 20" fill="none" xmlns="http://www.w3.org/2000/svg">
<path d="M15.293 4.48691V0.585938C15.293 0.262344 15.0306 0 14.707 0H5.29297C4.96937 0 4.70703 0.262344 4.70703 0.585938V4.48691C3.2573 5.87926 2.35352 7.83602 2.35352 10C2.35352 12.164 3.2573 14.1207 4.70703 15.5131V19.4141C4.70703 19.7377 4.96937 20 5.29297 20H14.707C15.0306 20 15.293 19.7377 15.293 19.4141V15.5131C16.7427 14.1207 17.6465 12.164 17.6465 10C17.6465 7.83602 16.7427 5.87926 15.293 4.48691ZM15.7318 6.9916L14.6346 7.44602C14.1512 6.57215 13.4278 5.84879 12.5539 5.36531L13.0084 4.2682C14.168 4.87937 15.1206 5.83199 15.7318 6.9916ZM10 14.1211C7.72762 14.1211 5.87891 12.2724 5.87891 10C5.87891 7.72762 7.72762 5.87891 10 5.87891C12.2724 5.87891 14.1211 7.72762 14.1211 10C14.1211 12.2724 12.2724 14.1211 10 14.1211ZM11.9264 16.182C11.3177 16.3721 10.6706 16.4746 10 16.4746C9.32941 16.4746 8.68234 16.3721 8.07355 16.182L8.52813 15.0845C8.99559 15.2201 9.48941 15.293 10 15.293C10.5106 15.293 11.0044 15.2201 11.4719 15.0845L11.9264 16.182ZM8.07355 3.81801C8.68234 3.62789 9.32941 3.52539 10 3.52539C10.6706 3.52539 11.3177 3.62789 11.9264 3.81801L11.4719 4.91547C11.0044 4.77992 10.5106 4.70703 10 4.70703C9.48941 4.70703 8.99563 4.77992 8.52813 4.91547L8.07355 3.81801ZM5.87891 1.17188H14.1211V3.5616C12.9311 2.79723 11.5164 2.35352 10 2.35352C8.48363 2.35352 7.06895 2.79723 5.87891 3.5616V1.17188ZM6.9916 4.26824L7.44602 5.36535C6.57215 5.84883 5.84879 6.57219 5.36531 7.44605L4.2682 6.99164C4.87934 5.83199 5.83199 4.87937 6.9916 4.26824ZM3.52539 10C3.52539 9.32941 3.62789 8.68234 3.81801 8.07355L4.91547 8.52813C4.77992 8.99559 4.70703 9.48941 4.70703 10C4.70703 10.5106 4.77992 11.0044 4.91547 11.4719L3.81801 11.9264C3.62789 11.3177 3.52539 10.6706 3.52539 10ZM4.26824 13.0084L5.36535 12.554C5.84883 13.4279 6.57219 14.1512 7.44605 14.6347L6.99164 15.7318C5.83199 15.1206 4.87934 14.168 4.26824 13.0084ZM14.1211 18.8281H5.87891V16.4384C7.06895 17.2028 8.48363 17.6465 10 17.6465C11.5164 17.6465 12.9311 17.2028 14.1211 16.4384V18.8281ZM13.0084 15.7318L12.554 14.6346C13.4279 14.1512 14.1512 13.4278 14.6347 12.5539L15.7318 13.0084C15.1206 14.168 14.168 15.1206 13.0084 15.7318ZM15.0845 11.4719C15.2201 11.0044 15.293 10.5106 15.293 10C15.293 9.48941 15.2201 8.99563 15.0845 8.52813L16.182 8.07355C16.3721 8.68234 16.4746 9.32941 16.4746 10C16.4746 10.6706 16.3721 11.3177 16.182 11.9264L15.0845 11.4719Z" fill="#BACED0"/>
<path d="M10.5859 9.7573V7.64648C10.5859 7.32289 10.3236 7.06055 10 7.06055C9.67641 7.06055 9.41406 7.32289 9.41406 7.64648V10C9.41406 10.1554 9.47578 10.3045 9.5857 10.4143L10.7625 11.5911C10.8769 11.7055 11.0268 11.7627 11.1768 11.7627C11.3267 11.7627 11.4767 11.7055 11.5911 11.5911C11.8199 11.3623 11.8199 10.9913 11.5911 10.7624L10.5859 9.7573Z" fill="#BACED0"/>
</svg>
