<svg width="20" height="20" viewBox="0 0 20 20" fill="none" xmlns="http://www.w3.org/2000/svg">
<g clip-path="url(#clip0_2392_6275)">
<path d="M15.7024 4.6782H14.7391C15.1048 4.19043 15.3218 3.585 15.3218 2.9298V2.92027C15.3218 1.31004 14.0118 0 12.4015 0H12.392C11.4212 0 10.5601 0.476563 10.0288 1.20762C9.49758 0.476563 8.63645 0 7.66567 0H7.65613C6.0459 0 4.73586 1.31004 4.73586 2.92027V2.9298C4.73586 3.585 4.95281 4.19043 5.31856 4.6782H4.29758C3.20692 4.6782 2.31961 5.56555 2.31961 6.65621V18.0221C2.31961 19.1127 3.20692 20 4.29758 20H15.7024C16.793 20 17.6804 19.1127 17.6804 18.0221V6.65617C17.6804 5.56555 16.793 4.6782 15.7024 4.6782ZM10.805 5.85008V10.3622H9.19496V5.85008H10.805ZM16.489 11.5341V13.1441H3.51098V11.5341H16.489ZM16.5085 6.65617V10.3622H11.9769V5.85008H15.7024C16.1469 5.85008 16.5085 6.21172 16.5085 6.65617ZM10.6436 2.92027C10.6436 1.95621 11.428 1.17188 12.392 1.17188H12.4016C13.3656 1.17188 14.15 1.95621 14.15 2.92027V2.9298C14.15 3.89387 13.3656 4.6782 12.4016 4.6782H10.6436V2.92027ZM5.90774 2.9298V2.92027C5.90774 1.95621 6.69207 1.17188 7.65613 1.17188H7.66567C8.62973 1.17188 9.41406 1.95621 9.41406 2.92027V4.6782H7.65613C6.69207 4.6782 5.90774 3.89387 5.90774 2.9298ZM4.29762 5.85008H8.02313V10.3622H3.49152V6.65621C3.49152 6.21172 3.85313 5.85008 4.29762 5.85008ZM3.49152 18.022V14.316H8.02313V18.8281H4.29762C3.85313 18.8281 3.49152 18.4665 3.49152 18.022ZM9.195 18.8281V14.316H10.805V18.8281H9.195ZM15.7024 18.8281H11.9769V14.316H16.5085V18.022C16.5085 18.4665 16.1469 18.8281 15.7024 18.8281Z" fill="#BACED0"/>
</g>
<defs>
<clipPath id="clip0_2392_6275">
<rect width="20" height="20" fill="white"/>
</clipPath>
</defs>
</svg>
