<svg width="20" height="20" viewBox="0 0 20 20" fill="none" xmlns="http://www.w3.org/2000/svg">
<g clip-path="url(#clip0_2392_6280)">
<path d="M8.82324 0H0.585938C0.262344 0 0 0.262344 0 0.585938V19.4141C0 19.7377 0.262344 20 0.585938 20H8.82324C9.14684 20 9.40918 19.7377 9.40918 19.4141V0.585938C9.40918 0.262344 9.14684 0 8.82324 0ZM8.2373 1.17188V2.35352H1.17188V1.17188H8.2373ZM1.17188 14.1211V12.9395H8.2373V14.1211H1.17188ZM8.2373 15.293V16.4746H1.17188V15.293H8.2373ZM1.17188 11.7676V10.5859H8.2373V11.7676H1.17188ZM1.17188 9.41406V8.23242H8.2373V9.41406H1.17188ZM1.17188 7.06055V5.87891H8.2373V7.06055H1.17188ZM1.17188 4.70703V3.52539H8.2373V4.70703H1.17188ZM1.17188 18.8281V17.6465H8.2373V18.8281H1.17188Z" fill="#BACED0"/>
<path d="M19.4141 4.70703H11.1768C10.8532 4.70703 10.5908 4.96937 10.5908 5.29297V19.4141C10.5908 19.7377 10.8532 20 11.1768 20H19.4141C19.7377 20 20 19.7377 20 19.4141V5.29297C20 4.96937 19.7377 4.70703 19.4141 4.70703ZM18.8281 5.87891V7.06055H11.7627V5.87891H18.8281ZM11.7627 14.1211V12.9395H18.8281V14.1211H11.7627ZM18.8281 15.293V16.4746H11.7627V15.293H18.8281ZM11.7627 11.7676V10.5859H18.8281V11.7676H11.7627ZM11.7627 9.41406V8.23242H18.8281V9.41406H11.7627ZM11.7627 18.8281V17.6465H18.8281V18.8281H11.7627Z" fill="#BACED0"/>
</g>
<defs>
<clipPath id="clip0_2392_6280">
<rect width="20" height="20" fill="white"/>
</clipPath>
</defs>
</svg>
