<svg width="20" height="20" viewBox="0 0 20 20" fill="none" xmlns="http://www.w3.org/2000/svg">
<path d="M19.9753 15.7154L18.7985 11.7929C18.7242 11.545 18.4961 11.3753 18.2373 11.3753H16.712L15.6605 7.87035C15.5862 7.6225 15.358 7.45281 15.0993 7.45281H13.5739L12.5225 3.94781C12.4481 3.69996 12.22 3.53027 11.9613 3.53027H8.03875C7.78 3.53027 7.55188 3.7 7.47754 3.94781L6.42606 7.45281H4.9007C4.64195 7.45281 4.41383 7.62254 4.33949 7.87035L3.28801 11.3753H1.7627C1.50395 11.3753 1.27582 11.545 1.20149 11.7929L0.0247276 15.7154C-0.0284755 15.8928 0.00527448 16.0849 0.11586 16.2336C0.226407 16.3821 0.400743 16.4697 0.585939 16.4697H19.4141C19.5993 16.4697 19.7736 16.3821 19.8841 16.2336C19.9947 16.0849 20.0285 15.8928 19.9753 15.7154ZM14.6634 8.62469L15.4886 11.3753H10.7875L11.6127 8.62469H14.6634ZM8.47469 4.70215H11.5253L12.3505 7.45281H7.64949L8.47469 4.70215ZM10.3893 8.62469L10 9.92215L9.61074 8.62469H10.3893ZM5.33664 8.62469H8.38731L9.2125 11.3753H4.51145L5.33664 8.62469ZM1.37344 15.2979L2.19863 12.5472H5.2493L6.07449 15.2979H1.37344ZM6.86199 13.8447L6.47274 12.5472H7.25121L6.86199 13.8447ZM7.64949 15.2979L8.47469 12.5472H11.5253L12.3505 15.2979H7.64949ZM13.138 13.8447L12.7488 12.5472H13.5272L13.138 13.8447ZM13.9255 15.2979L14.7507 12.5472H17.8014L18.6266 15.2979H13.9255Z" fill="#BACED0"/>
</svg>
